<?xml version="1.0" standalone="no"?>
<!DOCTYPE svg PUBLIC "-//W3C//DTD SVG 20010904//EN"
 "http://www.w3.org/TR/2001/REC-SVG-20010904/DTD/svg10.dtd">
<svg version="1.0" xmlns="http://www.w3.org/2000/svg"
 width="240.000000pt" height="165.000000pt" viewBox="0 0 240.000000 165.000000"
 preserveAspectRatio="xMidYMid meet">
<metadata>
Created by potrace 1.16, written by Peter Selinger 2001-2019
</metadata>
<g transform="translate(0.000000,165.000000) scale(0.100000,-0.100000)"
fill="#000000" stroke="none">
<path d="M1018 1590 c-79 -14 -230 -61 -291 -92 -60 -30 -77 -30 -77 1 0 41
-114 55 -186 22 -41 -19 -84 -63 -84 -87 0 -7 13 -21 30 -31 29 -17 30 -20 30
-85 0 -37 2 -68 5 -68 2 0 15 11 29 25 46 46 166 26 166 -28 0 -7 6 -22 14
-32 13 -18 16 -18 54 17 69 62 198 118 331 143 100 20 264 19 354 -1 104 -23
225 -83 275 -138 l41 -45 21 35 c32 51 57 64 122 64 45 0 63 -5 78 -20 32 -32
40 -24 40 38 0 54 2 58 35 80 19 12 35 26 35 32 0 27 -65 81 -117 96 -80 23
-163 0 -163 -46 0 -16 -8 -14 -67 16 -79 40 -187 76 -295 98 -82 17 -295 20
-380 6z m389 -29 c111 -22 203 -54 303 -107 111 -58 111 -59 50 -148 l-51 -76
-47 39 c-108 91 -230 131 -413 138 -198 8 -383 -39 -515 -131 l-65 -46 -18 43
c-29 69 -43 117 -38 132 8 19 118 78 207 110 184 66 397 83 587 46z m-791 -55
c3 -7 -4 -36 -14 -63 -17 -45 -18 -54 -6 -83 8 -18 14 -34 14 -36 0 -2 -25 -4
-56 -4 -30 0 -64 -5 -75 -10 -18 -10 -19 -7 -19 37 0 43 -3 51 -30 66 -16 10
-30 22 -30 26 0 12 53 59 80 70 39 15 130 14 136 -3z m1344 -26 c21 -11 44
-29 50 -40 9 -17 5 -23 -25 -42 -31 -20 -35 -28 -35 -65 0 -44 -7 -52 -27 -32
-6 6 -36 9 -72 7 -34 -1 -61 -1 -61 0 0 2 10 18 22 35 l22 30 -22 59 -21 59
22 9 c31 14 100 4 147 -20z"/>
<path d="M1047 1335 c-82 -17 -165 -47 -229 -83 l-48 -27 0 -117 0 -118 -32
-15 c-18 -8 -55 -31 -82 -50 -45 -33 -53 -35 -95 -29 -71 11 -86 10 -86 -6 0
-10 14 -14 50 -15 28 -1 60 -5 72 -9 17 -6 33 3 82 48 75 69 91 71 91 14 -1
-58 -45 -112 -83 -103 -38 10 -42 -11 -4 -24 29 -11 34 -10 54 14 28 32 33 32
33 -5 0 -42 -29 -55 -76 -35 -20 8 -40 12 -45 9 -18 -11 -8 -25 28 -40 28 -12
42 -13 60 -5 34 15 33 16 33 -34 0 -117 133 -307 284 -406 l59 -39 -34 0 c-43
0 -160 31 -221 58 -29 13 -52 31 -62 50 -19 36 -33 42 -102 42 -89 0 -115 -28
-78 -84 13 -22 14 -30 1 -80 -8 -30 -13 -57 -10 -60 3 -2 14 5 25 16 16 16 29
19 65 15 53 -6 83 -30 83 -68 0 -21 7 -32 28 -43 115 -59 398 -84 595 -52 158
26 227 60 227 111 0 51 104 74 147 33 28 -26 30 -14 11 56 -10 39 -9 49 8 81
l19 37 -24 19 c-46 38 -181 18 -181 -26 0 -24 -70 -63 -150 -84 -79 -21 -180
-36 -180 -28 0 3 21 17 46 32 63 37 177 147 231 222 49 69 83 154 83 208 0 38
2 40 29 25 12 -6 31 -6 54 1 40 11 49 19 39 37 -6 8 -18 8 -47 -2 -52 -18 -75
-6 -75 37 l1 32 23 -27 c20 -22 29 -25 52 -19 15 4 29 12 32 19 4 14 -17 16
-37 3 -11 -7 -22 0 -43 26 -28 36 -28 36 -28 189 0 84 -4 163 -9 176 -10 28
-130 88 -226 113 -83 23 -272 28 -358 10z m348 -50 c33 -9 92 -32 131 -50 l71
-34 7 -62 c3 -34 6 -149 6 -255 0 -172 -2 -200 -21 -249 -57 -153 -278 -355
-387 -355 -108 0 -288 154 -368 315 l-34 70 2 265 3 264 40 23 c57 32 140 63
215 79 81 17 252 11 335 -11z m-627 -907 c7 -7 12 -42 12 -86 0 -73 0 -74 -22
-67 -13 5 -45 9 -71 9 l-49 1 6 37 c4 25 1 46 -12 67 -15 28 -15 33 -2 41 21
14 124 12 138 -2z m1012 -3 c9 -11 8 -20 -7 -42 -14 -20 -18 -35 -12 -53 12
-43 10 -45 -38 -45 -27 0 -58 -4 -70 -8 -23 -8 -23 -7 -23 71 0 55 4 82 13 85
29 12 125 7 137 -8z m-809 -117 c70 -18 111 -22 244 -22 175 0 261 15 344 60
24 13 45 24 48 24 2 0 2 -41 1 -92 l-3 -91 -36 -19 c-61 -31 -167 -49 -324
-55 -162 -5 -299 10 -392 45 l-48 18 -3 101 -3 102 44 -24 c24 -14 82 -35 128
-47z"/>
<path d="M1208 1043 l-3 -248 -192 -3 -193 -2 0 -63 c0 -138 138 -319 305
-398 33 -16 66 -29 73 -29 9 0 12 56 12 245 l0 245 190 0 190 0 -2 193 -3 192
-75 37 c-77 39 -155 62 -247 72 l-53 7 -2 -248z m212 93 c0 -5 -6 -2 -13 9
-12 16 -15 9 -20 -56 -7 -85 2 -219 14 -219 5 0 9 -7 9 -16 0 -29 -25 -8 -35
30 -6 20 -17 41 -25 47 -13 8 -13 10 -1 18 9 6 -8 7 -47 4 -52 -5 -63 -3 -68
11 -4 10 -2 22 5 29 8 8 11 7 11 -5 0 -17 24 -26 53 -20 24 5 21 19 -8 54 -26
31 -30 58 -8 65 7 3 10 -3 7 -14 -3 -12 8 -30 30 -52 20 -19 36 -30 36 -24 0
6 -7 13 -15 17 -21 8 -19 30 5 51 11 10 20 28 20 41 0 12 5 35 11 51 10 27 11
27 25 9 8 -11 14 -24 14 -30z m-280 -503 c0 -94 -3 -120 -17 -135 -9 -10 -22
-18 -28 -18 -7 0 -15 -9 -18 -20 -5 -20 -8 -20 -71 12 l-66 32 0 123 0 123
100 0 100 0 0 -117z"/>
<path d="M950 625 l0 -105 50 -25 c27 -14 52 -25 55 -25 3 0 4 48 3 107 -2 74
-7 108 -15 111 -9 2 -13 -8 -13 -32 0 -25 -4 -36 -15 -36 -11 0 -15 12 -15 45
0 34 -5 47 -19 55 -11 5 -22 10 -25 10 -3 0 -6 -47 -6 -105z"/>
<path d="M915 1015 l0 -155 97 0 c86 0 99 2 108 19 18 35 12 38 -65 33 l-75
-5 0 52 0 51 49 0 c28 0 53 -4 56 -10 13 -22 25 -8 25 30 0 38 -12 52 -25 30
-3 -5 -28 -10 -56 -10 l-49 0 0 40 c0 40 0 40 38 40 20 0 53 -4 71 -10 41 -12
44 -10 35 24 -6 26 -7 26 -108 26 l-101 0 0 -155z"/>
<path d="M1275 581 l0 -171 44 0 c42 0 43 1 36 28 -9 30 -9 41 -7 90 2 31 4
32 43 32 32 0 47 6 71 30 27 27 30 36 25 72 -9 66 -33 82 -130 86 l-82 4 0
-171z"/>
<path d="M109 875 c-30 -16 -69 -99 -77 -161 -13 -116 84 -201 186 -162 41 15
114 104 166 202 25 45 28 59 19 78 -10 22 -11 22 -17 3 -4 -11 -28 -63 -54
-115 -55 -112 -88 -140 -162 -140 -37 0 -51 5 -71 26 -20 22 -24 35 -24 92 0
78 17 118 60 144 25 14 34 15 55 5 34 -17 51 -65 27 -78 -12 -7 -17 -23 -17
-57 1 -43 2 -46 15 -28 8 11 15 26 15 35 0 8 7 23 17 33 14 15 14 24 4 57 -21
70 -82 99 -142 66z"/>
<path d="M2201 876 c-46 -25 -67 -100 -36 -126 8 -7 15 -22 15 -34 0 -12 7
-31 15 -42 13 -18 14 -15 15 28 0 36 -5 52 -22 68 l-22 20 21 28 c24 32 65 40
98 18 25 -16 55 -92 55 -138 0 -40 -25 -94 -48 -107 -46 -25 -124 -9 -162 31
-19 20 -101 179 -112 218 -4 12 -7 10 -16 -6 -9 -18 -4 -34 35 -103 97 -171
163 -216 258 -177 49 21 75 68 75 137 0 142 -83 233 -169 185z"/>
<path d="M594 809 c-16 -17 -51 -42 -79 -56 -64 -32 -105 -71 -105 -99 0 -62
-33 -171 -65 -219 -46 -67 -44 -78 6 -30 52 51 58 62 85 168 12 49 24 90 26
92 1 1 26 17 55 34 32 20 63 50 83 82 38 59 35 71 -6 28z"/>
<path d="M1780 830 c1 -29 57 -95 109 -130 62 -41 63 -43 86 -140 22 -94 33
-115 84 -165 52 -49 52 -35 2 41 -32 49 -42 75 -55 153 -17 104 -27 120 -95
152 -25 12 -65 40 -88 63 -25 23 -43 34 -43 26z"/>
<path d="M325 634 c-9 -14 -21 -53 -26 -87 -12 -80 -25 -116 -49 -142 -17 -18
-18 -26 -8 -93 8 -50 16 -72 26 -72 11 0 13 12 8 58 -6 49 -3 64 19 106 14 27
25 59 25 71 0 12 9 48 20 81 11 32 20 67 20 76 0 28 -17 29 -35 2z"/>
</g>
</svg>
